<?xml version="1.0"?>
<svg xmlns="http://www.w3.org/2000/svg" viewBox="0 0 50 50">
    <path d="M47.7,27.7L43,19.6C41.9,10.3,37,2,23,2S3,11.5,3,22c0,4.2,1.3,8.1,3.5,11.3s3.5,7,3.5,10.9V49h22v-4.3l3.1,0.2 c4.3,0.4,7.9-3,7.9-7.3v-5.4l4-2C47.9,29.7,48.2,28.6,47.7,27.7z M17.3,25.4c0.332,0.442,0.242,1.069-0.2,1.4 c-0.18,0.135-0.39,0.2-0.599,0.2c-0.305,0-0.604-0.138-0.801-0.4L12.25,22l3.45-4.6c0.332-0.441,0.958-0.532,1.399-0.2 c0.442,0.331,0.532,0.958,0.2,1.4L14.75,22L17.3,25.4z M25.978,15.209l-3,14C22.877,29.679,22.462,30,22.001,30 c-0.069,0-0.14-0.007-0.211-0.022c-0.54-0.116-0.884-0.647-0.768-1.188l3-14c0.116-0.54,0.642-0.884,1.188-0.769 C25.75,14.138,26.094,14.669,25.978,15.209z M31.3,26.6c-0.196,0.262-0.496,0.4-0.801,0.4c-0.209,0-0.419-0.065-0.599-0.2 c-0.442-0.331-0.532-0.958-0.2-1.4l2.55-3.4l-2.55-3.4c-0.332-0.442-0.242-1.069,0.2-1.4c0.441-0.333,1.068-0.242,1.399,0.2 l3.45,4.6L31.3,26.6z"/>
</svg>
